<?xml version="1.0" encoding="utf-8"?>
<!-- Generator: Adobe Illustrator 25.0.1, SVG Export Plug-In . SVG Version: 6.00 Build 0)  -->
<svg version="1.1" id="logotipo" xmlns="http://www.w3.org/2000/svg" xmlns:xlink="http://www.w3.org/1999/xlink" x="0px" y="0px"
	 viewBox="0 0 792 612" style="enable-background:new 0 0 792 612;" xml:space="preserve">
<style type="text/css">
	.st0{fill:#011E41;}
	.st1{fill-rule:evenodd;clip-rule:evenodd;fill:#4FAE32;}
	.st2{fill-rule:evenodd;clip-rule:evenodd;fill:#35AA3E;}
	.st3{fill-rule:evenodd;clip-rule:evenodd;fill:#011E41;}
</style>
<path class="st0" d="M505.07,223.34c0,1.05-0.86,1.91-1.91,1.91h-33.23c-2.67,0-4.93,0.25-6.78,0.76c-1.86,0.51-3.5,1.55-4.93,3.12
	c-2.47,2.5-3.71,5.45-3.71,8.87v17.77c0,0.51,0.2,0.99,0.56,1.35c0.36,0.36,0.84,0.56,1.35,0.56h46.46c0.51,0,0.99,0.2,1.35,0.56
	c0.36,0.36,0.56,0.84,0.56,1.35v20.3c0,0.51-0.2,0.99-0.56,1.35c-0.36,0.36-0.84,0.56-1.35,0.56h-46.46c-0.51,0-0.99,0.2-1.35,0.56
	c-0.36,0.36-0.56,0.84-0.56,1.35v15.28c0,2.96,0.14,5.1,0.42,6.44c0.28,1.34,1.09,2.8,2.42,4.37c2.46,2.96,5.59,4.43,9.37,4.43
	h36.44c0.51,0,0.99,0.2,1.35,0.56c0.36,0.36,0.56,0.84,0.56,1.35c0,4.64,0,16.49,0,21.13c0,0.51-0.2,0.99-0.56,1.35
	c-0.36,0.36-0.84,0.56-1.35,0.56h-31.89c-7.01,0-12.97-0.97-17.89-2.91c-4.92-1.94-9.66-5.31-14.2-10.12
	c-3.79-4.06-6.53-7.99-8.24-11.78c-1.7-3.79-2.56-8.27-2.56-13.44v-64.58c0-4.99,0.85-9.31,2.56-12.96
	c1.7-3.65,4.45-7.46,8.24-11.43c3.79-3.97,7.48-6.84,11.08-8.59c4.07-2.03,8.71-3.05,13.92-3.05h38.99c0.51,0,0.99,0.2,1.35,0.56
	c0.36,0.36,0.56,0.84,0.56,1.35C505.07,206.85,505.07,218.69,505.07,223.34z"/>
<path class="st0" d="M596.15,223.34c0,1.05-0.85,1.91-1.91,1.91h-33.23c-2.67,0-4.93,0.25-6.78,0.76c-1.86,0.51-3.5,1.55-4.93,3.12
	c-2.48,2.5-3.71,5.45-3.71,8.87v17.77c0,0.51,0.2,0.99,0.56,1.35c0.36,0.36,0.84,0.56,1.35,0.56h46.46c0.51,0,0.99,0.2,1.35,0.56
	c0.36,0.36,0.56,0.84,0.56,1.35v20.3c0,0.51-0.2,0.99-0.56,1.35c-0.36,0.36-0.84,0.56-1.35,0.56H547.5c-0.51,0-0.99,0.2-1.35,0.56
	c-0.36,0.36-0.56,0.84-0.56,1.35v15.28c0,2.96,0.14,5.1,0.43,6.44c0.28,1.34,1.09,2.8,2.41,4.37c2.46,2.96,5.59,4.43,9.37,4.43
	h36.44c0.51,0,0.99,0.2,1.35,0.56c0.36,0.36,0.56,0.84,0.56,1.35c0,4.64,0,16.49,0,21.13c0,0.51-0.2,0.99-0.56,1.35
	c-0.36,0.36-0.84,0.56-1.35,0.56h-31.89c-7.01,0-12.97-0.97-17.9-2.91c-4.92-1.94-9.66-5.31-14.2-10.12
	c-3.79-4.06-6.53-7.99-8.24-11.78c-1.7-3.79-2.56-8.27-2.56-13.44v-64.58c0-4.99,0.85-9.31,2.56-12.96
	c1.7-3.65,4.45-7.46,8.24-11.43c3.79-3.97,7.48-6.84,11.08-8.59c4.07-2.03,8.71-3.05,13.92-3.05h38.99c0.51,0,0.99,0.2,1.35,0.56
	c0.36,0.36,0.56,0.84,0.56,1.35C596.15,206.85,596.15,218.69,596.15,223.34z"/>
<path class="st0" d="M351.9,339.16c-0.01,0-0.01,0-0.02,0c-0.4,0-16.71-0.06-22.36-0.08c-1.05,0-1.9-0.86-1.9-1.91V202.21
	c0-0.51,0.2-0.99,0.56-1.35c0.36-0.36,0.84-0.56,1.35-0.56h42.62c7.79,0,14.87,2.12,21.24,6.36c6.37,4.24,11.39,9.84,15.08,16.78
	c3.69,6.89,5.53,14.63,5.53,23.23v45.58c0,8.54-1.84,16.34-5.53,23.41c-3.69,6.95-8.71,12.6-15.08,16.96
	c-6.36,4.3-13.44,6.45-21.23,6.45c0,0,0,0,0,0C372.14,339.07,352.35,339.16,351.9,339.16z M356.03,312.13h16.12
	c4.05,0,7.61-1.91,10.71-5.74c3.03-3.77,4.55-8.48,4.55-14.13v-44.7c0-5.59-1.55-10.28-4.64-14.04c-3.03-3.83-6.57-5.74-10.62-5.74
	h-16.12c-0.51,0-0.99,0.2-1.35,0.56c-0.36,0.36-0.56,0.84-0.56,1.35v80.54c0,0.51,0.2,0.99,0.56,1.35
	C355.04,311.93,355.53,312.13,356.03,312.13z"/>
<path class="st0" d="M310.16,200.43c0.73-0.25,1.54-0.14,2.18,0.31c0.63,0.45,1.01,1.17,1.01,1.93c0,19.42,0,117.58,0,134.12
	c0,0.63-0.25,1.23-0.7,1.68c-0.45,0.44-1.06,0.69-1.7,0.69c-6.19,0-22.64,0-28.83,0c-0.64,0-1.25-0.25-1.7-0.69
	c-0.45-0.45-0.7-1.05-0.7-1.68c0-16.2,0-110.4,0-124.19c0-1.01,0.64-1.91,1.61-2.24C286.55,208.56,303.14,202.85,310.16,200.43z"/>
<path class="st1" d="M303.89,351.66l-2.99,8.97h20.45l3-8.97H303.89z M297.15,351.66h-9.35c-2.14,0-4.2,0.94-5.72,2.63
	s-2.37,3.96-2.37,6.34h14.44L297.15,351.66z M331.09,351.66l-3,8.97h31.06l2.99-8.97H331.09z M368.88,351.66l-2.99,8.97h328.31
	c2.14,0,4.2-0.94,5.72-2.63c1.52-1.68,2.37-3.96,2.37-6.34H368.88z"/>
<path class="st2" d="M303.89,351.66l-2.99,8.97h20.45l3-8.97H303.89z M297.15,351.66h-9.35c-2.14,0-4.2,0.94-5.72,2.63
	s-2.37,3.96-2.37,6.34h14.44L297.15,351.66z M331.09,351.66l-3,8.97h31.06l2.99-8.97H331.09z M368.88,351.66l-2.99,8.97h328.31
	c2.14,0,4.2-0.94,5.72-2.63c1.52-1.68,2.37-3.96,2.37-6.34H368.88z"/>
<path class="st0" d="M698.38,339.16c2.11,0,3.82-1.71,3.82-3.81c0.01-19.86,0.07-111.27,0.08-131.14c0-1.01-0.4-1.98-1.12-2.7
	c-0.72-0.72-1.69-1.12-2.7-1.12c-5.03,0-13.83,0-18.87,0c-2.11,0-3.82,1.71-3.82,3.82c0,13.7,0,60.07,0,69.24
	c0,0.18-0.12,0.33-0.29,0.37s-0.35-0.04-0.43-0.2c-4.69-9.17-30.8-60.26-36.42-71.24c-0.65-1.28-1.97-2.08-3.4-2.08
	c-4.44,0-14.15,0-19.55,0c-1.01,0-1.98,0.4-2.7,1.12c-0.72,0.72-1.12,1.69-1.12,2.7v131.23c0,2.11,1.71,3.82,3.82,3.82h18.87
	c1.01,0,1.98-0.4,2.7-1.12c0.72-0.72,1.12-1.69,1.12-2.7c0-13.67,0-59.83,0-68.98c0-0.18,0.12-0.33,0.29-0.37
	c0.17-0.04,0.35,0.04,0.43,0.2c4.68,9.13,30.72,59.95,36.33,70.89c0.65,1.27,1.96,2.08,3.4,2.08H698.38z"/>
<rect x="165.27" y="263.51" transform="matrix(0.6207 -0.7841 0.7841 0.6207 -147.9198 241.0484)" class="st2" width="19.79" height="19.79"/>
<path class="st3" d="M197.3,346.55l62.07-75.34c1.91-2.32,1.58-5.74-0.74-7.65l-96.06-79.14l-6.91,8.39l91.87,75.68l-58.62,71.15
	L197.3,346.55z"/>
<path class="st2" d="M150.06,200.62l-60.7,73.68c-1.91,2.32-1.58,5.74,0.74,7.65l95.51,78.68l6.91-8.39l-91.31-75.23l57.24-69.48
	L150.06,200.62z"/>
<path class="st3" d="M149.42,238.94L123,271.01c-1.91,2.32-1.58,5.74,0.74,7.65l58.68,48.35l6.91-8.39l-54.49-44.9l22.97-27.87
	L149.42,238.94z"/>
<path class="st2" d="M212.24,290.81l13.37-16.23c1.9-2.31,1.58-5.71-0.71-7.63l-58.38-48.61l-6.97,8.35l54.23,45.15l-9.94,12.06
	L212.24,290.81z"/>
<g>
	<path class="st0" d="M735.35,334.32c-7.16-0.11-12.78,5.71-12.88,12.54c-0.1,7.07,5.5,12.81,12.53,12.88
		c7.12,0.07,12.81-5.79,12.79-12.73C747.82,340.12,742.33,334.44,735.35,334.32z M738.7,357.76c-6.42,2.12-13.18-1.65-14.54-8.4
		c-0.98-4.9,1.22-9.8,5.51-12.24c2.01-1.14,4.19-1.6,6.49-1.36c4.41,0.47,7.5,2.77,9.29,6.81c0.62,1.4,0.86,2.88,0.87,4.57
		C746.32,351.91,743.28,356.26,738.7,357.76z"/>
	<path class="st0" d="M739.11,348.73c0.52-0.24,0.98-0.56,1.37-0.98c0.97-1.08,1.24-2.37,1.09-3.77c-0.17-1.51-0.94-2.59-2.31-3.23
		c-0.8-0.38-1.65-0.58-2.52-0.59c-2.31-0.03-4.62-0.02-6.92-0.03c-0.06,0-0.13,0.01-0.2,0.02c0,4.45,0,8.88,0,13.33
		c1.27,0,2.52,0,3.79,0c0-1.33,0-2.64,0-3.98c0.46,0,0.91,0.01,1.36,0c0.17,0,0.27,0.05,0.36,0.19c0.8,1.21,1.62,2.41,2.43,3.62
		c0.09,0.14,0.19,0.2,0.36,0.2c1.29-0.01,2.57,0,3.86,0c0.08,0,0.16-0.01,0.28-0.02c-1.07-1.56-2.13-3.09-3.19-4.63
		C738.95,348.81,739.03,348.77,739.11,348.73z M737.76,345.32c-0.18,0.72-0.72,1.07-1.39,1.13c-0.98,0.09-1.97,0.07-2.97,0.09
		c0-1.09,0-2.13,0-3.23c1.03,0.03,2.04,0,3.04,0.1C737.47,343.51,738,344.35,737.76,345.32z"/>
</g>
</svg>
